<svg xmlns="http://www.w3.org/2000/svg" width="512" height="512" version="1" viewBox="0 0 5120 5120">
  <path fill="#4f5455" d="M1870 4445v-605h-602c-340 0-633-5-671-10a481 481 0 0 1-382-360c-22-83-22-2138 0-2223a462 462 0 0 1 325-347c74-20 94-20 1745-20h1670l29-48c17-26 72-106 123-178s93-135 93-139 33-52 74-108c40-56 90-129 111-162 49-78 90-122 139-147 104-54 261 20 285 133 13 62-6 116-89 254-44 73-80 136-80 140s-32 59-70 121c-39 63-71 119-73 125-1 6 25 19 59 28a478 478 0 0 1 333 369c8 37 11 368 11 1095 0 1157 3 1096-67 1229a509 509 0 0 1-298 235c-16 4-345 9-730 10l-701 4-604 604c-333 333-611 605-617 605-10 0-13-127-13-605z"/>
  <path fill="#f68c4f" d="M2130 3985v-435h-732c-504 0-745-4-773-11-51-14-110-73-124-124-8-28-11-348-11-1065V1324l22-44c36-70 83-101 170-111 40-4 753-8 1583-9l1510-1 90-132c50-72 92-138 94-146 5-20 40-74 148-227 51-72 93-135 93-139s33-52 74-108c40-56 90-129 111-162 49-78 90-122 139-147 104-54 261 20 285 133 13 62-6 116-89 254-44 73-80 136-80 140 0 10-114 198-147 242-13 18-57 90-98 160l-74 128 70 7c88 9 143 38 184 96l30 44 3 1021c2 727 0 1037-8 1074-14 64-67 123-126 141-31 9-219 12-746 12h-704l-441 435c-243 239-444 435-447 435s-6-196-6-435z"/>
  <path fill="#fff" d="M2130 3985v-435h-732c-504 0-745-4-773-11-51-14-110-73-124-124-8-28-11-348-11-1065V1324l22-44c36-70 83-101 170-111 84-9 3078-12 3078-3 0 4-72 114-160 245-173 258-245 393-461 861-200 433-208 459-173 534 47 98 162 81 265-37 131-151 422-529 583-758 93-133 111-163 346-571 84-146 158-269 164-273s39-6 74-3c80 7 136 37 177 94l30 44 3 1021c2 727 0 1037-8 1074-14 64-67 123-126 141-31 9-219 12-746 12h-704l-441 435c-243 239-444 435-447 435s-6-196-6-435z"/>
</svg>
